<svg xmlns="http://www.w3.org/2000/svg" viewBox="0 0 400 300" width="406" height="306" class="illustration styles_illustrationTablet__1DWOa"><g id="_348_radio_presenter_outline" data-name="#348_radio_presenter_outline"><path d="M241.18,237.59v-48a13.06,13.06,0,0,0-13.08-13H166.43a13.06,13.06,0,0,0-13.08,13v48Z" fill="#43818f"></path><path d="M241.18,238.59H153.35a1,1,0,0,1-1-1v-48a14.08,14.08,0,0,1,14.08-14H228.1a14.08,14.08,0,0,1,14.08,14v48A1,1,0,0,1,241.18,238.59Zm-86.83-2h85.83v-47a12.08,12.08,0,0,0-12.08-12H166.43a12.08,12.08,0,0,0-12.08,12Z" fill="#093f68"></path><rect x="186.72" y="178.02" width="21.93" height="59.56" fill="#093f68"></rect><path d="M208.65,238.59H186.72a1,1,0,0,1-1-1V178a1,1,0,0,1,1-1h21.93a1,1,0,0,1,1,1v59.57A1,1,0,0,1,208.65,238.59Zm-20.93-2h19.93V179H187.72Z" fill="#093f68"></path><rect x="186.72" y="178.02" width="21.93" height="59.56" fill="#093f68"></rect><path d="M208.65,238.59H186.72a1,1,0,0,1-1-1V178a1,1,0,0,1,1-1h21.93a1,1,0,0,1,1,1v59.57A1,1,0,0,1,208.65,238.59Zm-20.93-2h19.93V179H187.72Z" fill="#093f68"></path><path d="M191.59,171.89h12.26a0,0,0,0,1,0,0v7.06a5.21,5.21,0,0,1-5.21,5.21h-1.85a5.21,5.21,0,0,1-5.21-5.21v-7.06A0,0,0,0,1,191.59,171.89Z" fill="#ffc9b0"></path><path d="M198.64,185.15h-1.85a6.21,6.21,0,0,1-6.2-6.2v-7.06a1,1,0,0,1,1-1h12.26a1,1,0,0,1,1,1V179A6.21,6.21,0,0,1,198.64,185.15Zm-6-12.26V179a4.2,4.2,0,0,0,4.2,4.2h1.85a4.21,4.21,0,0,0,4.21-4.2v-6.06Z" fill="#093f68"></path><path d="M155.82,137.87c-5.69-2.16-5.34-6.51-6.2-12.09a141.64,141.64,0,0,1-1.57-16.7c-.22-6.35,0-12.88,2.42-18.76,3.09-7.57,9.21-12.47,17.39-11.8-.24-11.16,6.45-21.63,18.32-22.26,19-1,29.94,19.4,40.59,17.88s13.47-6.25,13.47-6.25A19.51,19.51,0,0,1,238,89.41s8.38-2.44,9.39,8.71-5.65,40.78-5.65,40.78l-7.61-1.33c-3.19-.56-7.18.22-10.39.32l-23.77.74C188,139,168.76,142.76,155.82,137.87Z" fill="#725858"></path><path d="M173,141.35c-6.23,0-12.36-.6-17.49-2.55h0c-5.45-2.06-5.95-6-6.53-10.59-.09-.73-.19-1.49-.31-2.28a143.71,143.71,0,0,1-1.58-16.81c-.21-6-.07-12.89,2.49-19.18,3.34-8.18,9.58-12.71,17.32-12.47.19-10.71,6.73-21.54,19.27-22.21,11-.57,19.49,5.85,26.33,11,5.3,4,9.88,7.48,14.17,6.87,10.06-1.44,12.73-5.73,12.75-5.77a1,1,0,0,1,.86-.49h0a1,1,0,0,1,.85.5c.07.11,5.88,10.35-1,20.8a7.68,7.68,0,0,1,4.19,1.3c2.32,1.58,3.69,4.45,4.06,8.54,1,11.18-5.4,39.87-5.68,41.09a1,1,0,0,1-1.15.76l-7.6-1.33a27.33,27.33,0,0,0-6.8.09c-1.19.11-2.32.22-3.39.25l-23.77.74c-3,.1-6.45.41-10.13.73C184.59,140.83,178.73,141.35,173,141.35Zm-6.57-61.89c-6.64,0-12,4-15,11.24-2.42,5.93-2.54,12.61-2.34,18.35a139.45,139.45,0,0,0,1.56,16.57c.12.81.22,1.59.32,2.34.56,4.42.93,7.34,5.25,9h0c9.45,3.58,22.77,2.4,33.47,1.44,3.71-.33,7.22-.64,10.25-.74l23.76-.74c1,0,2.11-.13,3.27-.24a28.62,28.62,0,0,1,7.33-.07h0l6.67,1.16c1.11-5.11,6.31-29.77,5.42-39.54-.31-3.45-1.38-5.83-3.17-7.06a6.49,6.49,0,0,0-4.94-.78,1,1,0,0,1-1.11-.41,1,1,0,0,1,.05-1.18A18.28,18.28,0,0,0,240,69.7c-1.67,1.63-5.48,4.34-13.1,5.43-5.1.73-10-3-15.66-7.26-6.91-5.23-14.76-11.18-25-10.61-11.7.62-17.6,11.16-17.38,21.24a1,1,0,0,1-.32.75,1,1,0,0,1-.76.27C167.31,79.48,166.85,79.46,166.39,79.46Z" fill="#093f68"></path><path d="M197.72,173.5h0a35.93,35.93,0,0,1-35.93-35.93V116c2.1,3.45,9.09-10.16,14.89-21.54,38.28,19.39,57,9.85,57,9.85v33.27A35.93,35.93,0,0,1,197.72,173.5Z" fill="#ffc9b0"></path><path d="M197.72,174.5a37,37,0,0,1-36.93-36.93V116a1,1,0,0,1,1.85-.52.28.28,0,0,0,.07.09c2.16-.13,9.53-14.61,13.08-21.57a1,1,0,0,1,1.34-.43c37.27,18.87,55.88,9.94,56.07,9.84a1,1,0,0,1,1.45.9v33.27A37,37,0,0,1,197.72,174.5Zm-34.93-57v20a34.93,34.93,0,0,0,69.86,0V105.79c-5.08,1.82-23.29,6.08-55.53-10C169.56,110.58,165.64,117.29,162.79,117.53Z" fill="#093f68"></path><path d="M170,238.59a1,1,0,0,1-1-1V195.42a1,1,0,1,1,2,0v42.17A1,1,0,0,1,170,238.59Z" fill="#093f68"></path><path d="M223.64,238.59a1,1,0,0,1-1-1V195.42a1,1,0,1,1,2,0v42.17A1,1,0,0,1,223.64,238.59Z" fill="#093f68"></path><circle cx="178.98" cy="132.38" r="3.69" fill="#093f68"></circle><circle cx="216.46" cy="134.2" r="3.69" fill="#093f68"></circle><path d="M197.67,144a22.17,22.17,0,0,1-3.57-.3,1,1,0,1,1,.34-2,17.12,17.12,0,0,0,5.63,0c.36-.92-1.06-5-3.1-8.93a1,1,0,0,1,.43-1.35,1,1,0,0,1,1.34.42c1,1.92,4.19,8.37,3.13,10.73a1.81,1.81,0,0,1-1.24,1A12.66,12.66,0,0,1,197.67,144Z" fill="#093f68"></path><path d="M175.58,148.55a14.8,14.8,0,1,1,14.79-14.79A14.81,14.81,0,0,1,175.58,148.55Zm0-27.59a12.8,12.8,0,1,0,12.79,12.8A12.81,12.81,0,0,0,175.58,121Z" fill="#093f68"></path><path d="M219.86,148.55a14.8,14.8,0,1,1,14.79-14.79A14.81,14.81,0,0,1,219.86,148.55Zm0-27.59a12.8,12.8,0,1,0,12.79,12.8A12.8,12.8,0,0,0,219.86,121Z" fill="#093f68"></path><path d="M189.37,131.21a1,1,0,0,1-.81-.42,1,1,0,0,1,.24-1.4c.37-.26,9.32-6.45,17.77-1.46a1,1,0,1,1-1,1.72C198.24,125.33,190,131,190,131A1,1,0,0,1,189.37,131.21Z" fill="#093f68"></path><path d="M186.94,118.46h0l-17.62,0a2,2,0,0,1,0-4h0l17.62,0a2,2,0,1,1,0,4Z" fill="#093f68"></path><path d="M212.05,118.89a2,2,0,0,1-.1-4l17.59-.91a2,2,0,0,1,.21,4l-17.6.9Z" fill="#093f68"></path><rect x="251.77" y="229.71" width="3.54" height="9.58" fill="#ffbc0e"></rect><path d="M255.32,240.29h-3.55a1,1,0,0,1-1-1v-9.58a1,1,0,0,1,1-1h3.55a1,1,0,0,1,1,1v9.58A1,1,0,0,1,255.32,240.29Zm-2.55-2h1.55v-7.58h-1.55Z" fill="#093f68"></path><path d="M231.68,243.78s1.23-7.55,21.34-7.55,21.34,7.55,21.34,7.55Z" fill="#ffbc0e"></path><path d="M274.36,244.78H231.68a1,1,0,0,1-.76-.35,1,1,0,0,1-.22-.81c.05-.34,1.6-8.39,22.32-8.39s22.27,8.05,22.32,8.39a1,1,0,0,1-.22.81A1,1,0,0,1,274.36,244.78Zm-41.07-2h39.47c-1.41-1.92-5.89-5.55-19.74-5.55S234.7,240.85,233.29,242.78Z" fill="#093f68"></path><path d="M253.92,163.51h0a12.66,12.66,0,0,1,12.66,12.66V192a0,0,0,0,1,0,0H241.26a0,0,0,0,1,0,0V176.17A12.66,12.66,0,0,1,253.92,163.51Z" fill="#fff"></path><path d="M266.57,193H241.26a1,1,0,0,1-1-1v-15.8a13.66,13.66,0,1,1,27.31,0V192A1,1,0,0,1,266.57,193Zm-24.31-2h23.31v-14.8a11.66,11.66,0,1,0-23.31,0Z" fill="#093f68"></path><path d="M246.84,182.7a1,1,0,0,1-1-1v-16a1,1,0,0,1,2,0v16A1,1,0,0,1,246.84,182.7Z" fill="#093f68"></path><path d="M253.92,182.7a1,1,0,0,1-1-1V163.51a1,1,0,0,1,2,0V181.7A1,1,0,0,1,253.92,182.7Z" fill="#093f68"></path><path d="M261,182.7a1,1,0,0,1-1-1v-16a1,1,0,0,1,2,0v16A1,1,0,0,1,261,182.7Z" fill="#093f68"></path><path d="M255.66,231.66H250.2a20.57,20.57,0,0,1-20.55-20.55v-14a1.86,1.86,0,0,1,1.86-1.86h42.85a1.86,1.86,0,0,1,1.86,1.86v14A20.58,20.58,0,0,1,255.66,231.66ZM233.37,199v12.16a16.85,16.85,0,0,0,16.83,16.83h5.46a16.85,16.85,0,0,0,16.83-16.83V199Z" fill="#ffbc0e"></path><path d="M255.67,232.66H250.2a21.57,21.57,0,0,1-21.55-21.55v-14a2.86,2.86,0,0,1,2.86-2.86h42.85a2.87,2.87,0,0,1,2.86,2.86v14A21.57,21.57,0,0,1,255.67,232.66Zm-24.16-36.43a.85.85,0,0,0-.86.86v14a19.57,19.57,0,0,0,19.55,19.55h5.47a19.57,19.57,0,0,0,19.55-19.55v-14a.86.86,0,0,0-.86-.86Zm24.16,32.71H250.2a17.85,17.85,0,0,1-17.83-17.83V199a1,1,0,0,1,1-1h39.12a1,1,0,0,1,1,1v12.16A17.84,17.84,0,0,1,255.67,228.94Zm-21.3-29v11.16a15.85,15.85,0,0,0,15.83,15.83h5.47a15.84,15.84,0,0,0,15.82-15.83V200Z" fill="#093f68"></path><path d="M237.54,189.39h31.13a0,0,0,0,1,0,0v18A15.56,15.56,0,0,1,253.11,223h0a15.56,15.56,0,0,1-15.56-15.56v-18A0,0,0,0,1,237.54,189.39Z" fill="#ffbc0e"></path><path d="M253.11,224a16.58,16.58,0,0,1-16.57-16.56v-18a1,1,0,0,1,1-1h31.13a1,1,0,0,1,1,1v18A16.58,16.58,0,0,1,253.11,224Zm-14.57-33.58v17a14.57,14.57,0,0,0,29.13,0v-17Z" fill="#093f68"></path><path d="M241.18,116.48a2,2,0,0,1-2-2v-4.27a41,41,0,1,0-82,0v4.27a2,2,0,0,1-4,0v-4.27a45,45,0,1,1,90,0v4.27A2,2,0,0,1,241.18,116.48Z" fill="#43818f"></path><path d="M241.18,117.48a3,3,0,0,1-3-3v-4.27a40,40,0,1,0-80,0v4.27a3,3,0,0,1-6,0v-4.27a46,46,0,1,1,92,0v4.27A3,3,0,0,1,241.18,117.48Zm-43-49.26a42,42,0,0,1,42,42v4.27a1,1,0,1,0,2,0v-4.27a44,44,0,1,0-88,0v4.27a1,1,0,0,0,2,0v-4.27A42,42,0,0,1,198.2,68.22Z" fill="#093f68"></path><rect x="233.65" y="114.49" width="14.45" height="32.55" rx="3.82" transform="translate(481.76 261.52) rotate(-180)" fill="#43818f"></rect><path d="M244.28,148h-6.81a4.82,4.82,0,0,1-4.82-4.82v-24.9a4.82,4.82,0,0,1,4.82-4.82h6.81a4.82,4.82,0,0,1,4.82,4.82v24.9A4.82,4.82,0,0,1,244.28,148Zm-6.81-32.54a2.82,2.82,0,0,0-2.82,2.82v24.9a2.83,2.83,0,0,0,2.82,2.82h6.81a2.82,2.82,0,0,0,2.82-2.82v-24.9a2.82,2.82,0,0,0-2.82-2.82Z" fill="#093f68"></path><path d="M249.81,119.77h2.3a0,0,0,0,1,0,0v22a0,0,0,0,1,0,0h-2.3a1.7,1.7,0,0,1-1.7-1.7V121.47a1.7,1.7,0,0,1,1.7-1.7Z" transform="translate(500.21 261.52) rotate(-180)" fill="#43818f"></path><path d="M250.4,142.75h-2.3a1,1,0,0,1-1-1v-22a1,1,0,0,1,1-1h2.3a2.7,2.7,0,0,1,2.7,2.7v18.58A2.7,2.7,0,0,1,250.4,142.75Zm-1.3-2h1.3a.7.7,0,0,0,.7-.7V121.47a.7.7,0,0,0-.7-.7h-1.3Z" fill="#093f68"></path><path d="M206.07,151.31c0,6.74-2.89,12.2-6.46,12.2s-6.45-5.46-6.45-12.2Z" fill="#093f68"></path><path d="M199.61,164.51c-4.18,0-7.45-5.8-7.45-13.2a1,1,0,0,1,1-1h12.91a1,1,0,0,1,1,1C207.07,158.71,203.79,164.51,199.61,164.51Zm-5.43-12.2c.26,5.62,2.64,10.2,5.43,10.2s5.18-4.58,5.43-10.2Z" fill="#093f68"></path><path d="M161.06,195.22s-3.74-20.16-9-22.42-19.3,1.4-19.85,6.34c-1.17,10.45,7.43,12.16,9,12.67s3.66,16.94,3.66,16.94Z" fill="#ffc9b0"></path><path d="M144.92,209.75a.89.89,0,0,1-.36-.07,1,1,0,0,1-.63-.8c-.87-6.9-2.31-14.89-3.15-16.17l-.18-.06c-7-2-10.13-6.58-9.34-13.62.18-1.67,1.52-3.27,3.87-4.63,4.57-2.66,13.15-4.33,17.37-2.52,5.55,2.4,9.15,21,9.55,23.16a1,1,0,0,1-.34,1l-16.15,13.53A1,1,0,0,1,144.92,209.75Zm3-36.62a26.07,26.07,0,0,0-11.82,3c-1.75,1-2.77,2.12-2.89,3.12-1,8.93,5.7,10.85,7.91,11.48l.41.12c.58.19,2.08.67,4.12,16l14.29-12c-1.47-7.64-4.91-19.66-8.27-21.11A9.89,9.89,0,0,0,148,173.13Z" fill="#093f68"></path><path d="M137.32,196a1,1,0,0,1,0-2,13.78,13.78,0,0,0,9.48-4.3,12.21,12.21,0,0,0,3.09-9.64,2.11,2.11,0,0,0-.9-1.67c-2-1.46-6.64-.81-8.26-.43a1,1,0,0,1-1.18-.67,1,1,0,0,1,.58-1.23l1.67-.68a1,1,0,0,1,1.07.21c2.24-.23,5.37-.23,7.31,1.19a4.16,4.16,0,0,1,1.71,3.13,14.32,14.32,0,0,1-3.62,11.14A15.92,15.92,0,0,1,137.32,196Z" fill="#093f68"></path><polygon points="137.47 201.79 116.48 201.79 111.78 174.23 142.17 174.23 137.47 201.79" fill="#f56132"></polygon><path d="M137.47,202.79h-21a1,1,0,0,1-1-.83l-4.71-27.56a1,1,0,0,1,.23-.81,1,1,0,0,1,.76-.36h30.39a1,1,0,0,1,1,1.17L138.46,202A1,1,0,0,1,137.47,202.79Zm-20.14-2h19.3L141,175.23H113Z" fill="#093f68"></path><path d="M162.34,243.33h0A11,11,0,0,1,149,235.47l-9.13-34.77,21.19-5.48,8.12,30.9,1,3.87A11,11,0,0,1,162.34,243.33Z" fill="#43818f"></path><path d="M159.6,244.68a12,12,0,0,1-11.57-9L138.91,201a1,1,0,0,1,.71-1.23l21.19-5.48A1,1,0,0,1,162,195l9.13,34.77a12,12,0,0,1-8.57,14.56h0A12.32,12.32,0,0,1,159.6,244.68Zm2.74-1.35h0Zm-21.25-41.91,8.88,33.8a9.95,9.95,0,1,0,19.26-5l-8.88-33.8Z" fill="#093f68"></path><path d="M153.35,178.57c-2.44-.11-2.42-.71-4.84-.35a7.77,7.77,0,0,0-3.07,1,3.06,3.06,0,0,0-1.54,2.68,1.54,1.54,0,0,0,.38,1,2.37,2.37,0,0,0,1.67.53c1.7.08,3.41.09,5.11,0a8.26,8.26,0,0,0-2.75,7.3,4,4,0,0,0,.89,2.17,5.3,5.3,0,0,0,3.57,1.21c.38,0,.85,0,1-.34" fill="#ffc9b0"></path><path d="M153,195.08h-.3c-1.53-.13-3.13-.35-4.22-1.53a4.83,4.83,0,0,1-1.15-2.71,9.36,9.36,0,0,1,1.5-6.4h0c-1,0-1.95,0-2.92-.07a3.29,3.29,0,0,1-2.35-.84,2.57,2.57,0,0,1-.65-1.58,4.06,4.06,0,0,1,2-3.6,8.74,8.74,0,0,1,3.47-1.11,7.05,7.05,0,0,1,3.1.09,11.7,11.7,0,0,0,1.92.26,1,1,0,0,1,1,1,1,1,0,0,1-1,.95,12.61,12.61,0,0,1-2.25-.3,5.29,5.29,0,0,0-2.39-.06A7.06,7.06,0,0,0,146,180a2.16,2.16,0,0,0-1.08,1.77.64.64,0,0,0,.12.36c.17.18.74.2,1,.21,1.68.08,3.37.09,5,0a1,1,0,0,1,.68,1.76,7.29,7.29,0,0,0-2.41,6.4,3,3,0,0,0,.64,1.63,4.4,4.4,0,0,0,2.91.89H153a1,1,0,0,1,1.17-.26,1,1,0,0,1,.5,1.33A1.69,1.69,0,0,1,153,195.08Z" fill="#093f68"></path><rect x="147.98" y="114.49" width="14.45" height="32.55" rx="3.82" fill="#43818f"></rect><path d="M158.61,148H151.8a4.83,4.83,0,0,1-4.82-4.82v-24.9a4.83,4.83,0,0,1,4.82-4.82h6.81a4.82,4.82,0,0,1,4.82,4.82v24.9A4.82,4.82,0,0,1,158.61,148Zm-6.81-32.54a2.82,2.82,0,0,0-2.82,2.82v24.9A2.83,2.83,0,0,0,151.8,146h6.81a2.82,2.82,0,0,0,2.82-2.82v-24.9a2.82,2.82,0,0,0-2.82-2.82Z" fill="#093f68"></path><path d="M145.68,119.77H148a0,0,0,0,1,0,0v22a0,0,0,0,1,0,0h-2.3A1.7,1.7,0,0,1,144,140V121.47A1.7,1.7,0,0,1,145.68,119.77Z" fill="#43818f"></path><path d="M148,142.75h-2.3a2.7,2.7,0,0,1-2.7-2.7V121.47a2.7,2.7,0,0,1,2.7-2.7H148a1,1,0,0,1,1,1v22A1,1,0,0,1,148,142.75Zm-2.3-22a.7.7,0,0,0-.7.7v18.58a.71.71,0,0,0,.7.7H147v-20Z" fill="#093f68"></path><path d="M174.43,225.34a1,1,0,0,1-.39-1.92l6.39-2.63a1,1,0,0,1,1.3.54,1,1,0,0,1-.54,1.31l-6.38,2.63A1.06,1.06,0,0,1,174.43,225.34Z" fill="#093f68"></path><path d="M220.05,225.34a1,1,0,0,1-.38-.07l-6.38-2.63a1,1,0,1,1,.76-1.85l6.38,2.63a1,1,0,0,1,.54,1.3A1,1,0,0,1,220.05,225.34Z" fill="#093f68"></path></g></svg>